<svg width="20" height="10" viewBox="0 0 20 10" fill="none" xmlns="http://www.w3.org/2000/svg">
<path d="M2.54429 4.29338C1.49036 3.97274 1.15143 3.64122 1.15143 3.12493C1.15143 2.53255 1.62036 2.11952 2.405 2.11952C3.23143 2.11952 3.53786 2.58146 3.56571 3.2608H4.59178C4.55928 2.32603 4.07178 1.46736 3.10143 1.19019V0H1.70857V1.17389C0.807857 1.40214 0.0835713 2.08691 0.0835713 3.1358C0.0835713 4.39121 0.970357 5.01619 2.26571 5.38031C3.42643 5.70639 3.65857 6.18464 3.65857 6.69007C3.65857 7.06506 3.43107 7.66287 2.405 7.66287C1.44857 7.66287 1.0725 7.16288 1.02143 6.52159H0C0.0557143 7.71178 0.817143 8.38025 1.70857 8.60307V9.78239H3.10143V8.61394C4.00678 8.41286 4.72643 7.79874 4.72643 6.68463C4.72643 5.14119 3.59821 4.61403 2.54429 4.29338Z" fill="#3AC158"/>
<path d="M9.97251 4.29338C8.91858 3.97274 8.57965 3.64122 8.57965 3.12493C8.57965 2.53255 9.04858 2.11952 9.83322 2.11952C10.6597 2.11952 10.9661 2.58146 10.9939 3.2608H12.02C11.9875 2.32603 11.5 1.46736 10.5297 1.19019V0H9.13679V1.17389C8.23608 1.40214 7.51179 2.08691 7.51179 3.1358C7.51179 4.39121 8.39858 5.01619 9.69394 5.38031C10.8547 5.70639 11.0868 6.18464 11.0868 6.69007C11.0868 7.06506 10.8593 7.66287 9.83322 7.66287C8.87679 7.66287 8.50072 7.16288 8.44965 6.52159H7.42822C7.48394 7.71178 8.24537 8.38025 9.13679 8.60307V9.78239H10.5297V8.61394C11.435 8.41286 12.1547 7.79874 12.1547 6.68463C12.1547 5.14119 11.0264 4.61403 9.97251 4.29338Z" fill="white"/>
<path d="M17.4017 4.29338C16.3478 3.97274 16.0089 3.64122 16.0089 3.12493C16.0089 2.53255 16.4778 2.11952 17.2624 2.11952C18.0888 2.11952 18.3953 2.58146 18.4231 3.2608H19.4492C19.4167 2.32603 18.9292 1.46736 17.9588 1.19019V0H16.566V1.17389C15.6653 1.40214 14.941 2.08691 14.941 3.1358C14.941 4.39121 15.8278 5.01619 17.1231 5.38031C18.2838 5.70639 18.516 6.18464 18.516 6.69007C18.516 7.06506 18.2885 7.66287 17.2624 7.66287C16.306 7.66287 15.9299 7.16288 15.8789 6.52159H14.8574C14.9131 7.71178 15.6746 8.38025 16.566 8.60307V9.78239H17.9588V8.61394C18.8642 8.41286 19.5838 7.79874 19.5838 6.68463C19.5838 5.14119 18.4556 4.61403 17.4017 4.29338Z" fill="white"/>
</svg>
