<svg width="68" height="68" viewBox="0 0 68 68" fill="none" xmlns="http://www.w3.org/2000/svg">
<path d="M40.5078 34C40.5078 37.5942 37.5942 40.5078 34 40.5078C30.4058 40.5078 27.4922 37.5942 27.4922 34C27.4922 30.4058 30.4058 27.4922 34 27.4922C37.5942 27.4922 40.5078 30.4058 40.5078 34Z" fill="white"/>
<path d="M49.2195 22.4859C48.9066 21.6382 48.4076 20.8708 47.7591 20.241C47.1292 19.5925 46.3625 19.0934 45.5142 18.7806C44.8263 18.5134 43.7928 18.1954 41.8894 18.1088C39.8303 18.0149 39.2129 17.9946 34 17.9946C28.7866 17.9946 28.1692 18.0143 26.1106 18.1082C24.2072 18.1954 23.1732 18.5134 22.4858 18.7806C21.6375 19.0934 20.8702 19.5925 20.2409 20.241C19.5924 20.8708 19.0934 21.6376 18.78 22.4859C18.5128 23.1738 18.1948 24.2078 18.1082 26.1112C18.0143 28.1698 17.994 28.7872 17.994 34.0006C17.994 39.2135 18.0143 39.8309 18.1082 41.89C18.1948 43.7935 18.5128 44.8269 18.78 45.5148C19.0934 46.3631 19.5919 47.1299 20.2404 47.7597C20.8702 48.4082 21.637 48.9073 22.4853 49.2201C23.1732 49.4878 24.2072 49.8058 26.1106 49.8925C28.1692 49.9864 28.7861 50.0061 33.9995 50.0061C39.2134 50.0061 39.8308 49.9864 41.8889 49.8925C43.7923 49.8058 44.8263 49.4878 45.5142 49.2201C47.2169 48.5633 48.5627 47.2175 49.2195 45.5148C49.4867 44.8269 49.8047 43.7935 49.8918 41.89C49.9857 39.8309 50.0055 39.2135 50.0055 34.0006C50.0055 28.7872 49.9857 28.1698 49.8918 26.1112C49.8052 24.2078 49.4872 23.1738 49.2195 22.4859V22.4859ZM34 44.0254C28.4629 44.0254 23.9742 39.5372 23.9742 34.0001C23.9742 28.463 28.4629 23.9748 34 23.9748C39.5366 23.9748 44.0253 28.463 44.0253 34.0001C44.0253 39.5372 39.5366 44.0254 34 44.0254ZM44.4216 25.9214C43.1277 25.9214 42.0787 24.8723 42.0787 23.5785C42.0787 22.2846 43.1277 21.2356 44.4216 21.2356C45.7155 21.2356 46.7645 22.2846 46.7645 23.5785C46.764 24.8723 45.7155 25.9214 44.4216 25.9214Z" fill="white"/>
<path d="M34 0C15.2252 0 0 15.2252 0 34C0 52.7748 15.2252 68 34 68C52.7748 68 68 52.7748 68 34C68 15.2252 52.7748 0 34 0ZM53.4057 42.0492C53.3112 44.1275 52.9808 45.5464 52.4983 46.7884C51.484 49.4109 49.4109 51.484 46.7884 52.4983C45.5469 52.9808 44.1275 53.3107 42.0497 53.4057C39.9677 53.5006 39.3026 53.5234 34.0005 53.5234C28.6979 53.5234 28.0333 53.5006 25.9508 53.4057C23.873 53.3107 22.4536 52.9808 21.2121 52.4983C19.9089 52.008 18.7292 51.2397 17.7538 50.2462C16.7608 49.2714 15.9925 48.0911 15.5022 46.7884C15.0197 45.5469 14.6893 44.1275 14.5948 42.0497C14.4989 39.9672 14.4766 39.3021 14.4766 34C14.4766 28.6979 14.4989 28.0328 14.5943 25.9508C14.6888 23.8725 15.0187 22.4536 15.5012 21.2116C15.9915 19.9089 16.7603 18.7286 17.7538 17.7538C18.7286 16.7603 19.9089 15.992 21.2116 15.5017C22.4536 15.0192 23.8725 14.6893 25.9508 14.5943C28.0328 14.4994 28.6979 14.4766 34 14.4766C39.3021 14.4766 39.9672 14.4994 42.0492 14.5948C44.1275 14.6893 45.5464 15.0192 46.7884 15.5012C48.0911 15.9915 49.2714 16.7603 50.2467 17.7538C51.2397 18.7292 52.0085 19.9089 52.4983 21.2116C52.9813 22.4536 53.3112 23.8725 53.4062 25.9508C53.5011 28.0328 53.5234 28.6979 53.5234 34C53.5234 39.3021 53.5011 39.9672 53.4057 42.0492V42.0492Z" fill="white"/>
</svg>
