<svg width="125" height="35" viewBox="0 0 125 35" fill="none" xmlns="http://www.w3.org/2000/svg">
<path d="M20.5877 8.60949V24.0997C20.5877 27.5112 19.6996 30.0468 17.9234 31.7064C16.1472 33.3661 13.5522 34.1959 10.1382 34.1959C8.3389 34.1959 6.63191 33.9769 5.01718 33.539C3.40246 33.101 2.06454 32.4671 1.00344 31.6373L3.14871 27.7647C3.93301 28.4102 4.92491 28.9173 6.12442 29.2861C7.32393 29.678 8.52344 29.8739 9.72295 29.8739C11.5914 29.8739 12.9639 29.4475 13.8405 28.5946C14.7401 27.7647 15.1899 26.4969 15.1899 24.7912V23.9959C13.7828 25.5403 11.8221 26.3125 9.30773 26.3125C7.60074 26.3125 6.03215 25.9437 4.60197 25.2061C3.19485 24.4454 2.07608 23.3851 1.24565 22.0251C0.415217 20.6651 0 19.0976 0 17.3227C0 15.5478 0.415217 13.9803 1.24565 12.6203C2.07608 11.2603 3.19485 10.2115 4.60197 9.4739C6.03215 8.71322 7.60074 8.33288 9.30773 8.33288C12.0066 8.33288 14.0596 9.22034 15.4668 10.9953V8.60949H20.5877ZM10.3804 21.8868C11.8106 21.8868 12.9755 21.4719 13.8751 20.642C14.7978 19.7892 15.2591 18.6827 15.2591 17.3227C15.2591 15.9627 14.7978 14.8678 13.8751 14.038C12.9755 13.1851 11.8106 12.7586 10.3804 12.7586C8.95019 12.7586 7.77375 13.1851 6.85105 14.038C5.92835 14.8678 5.467 15.9627 5.467 17.3227C5.467 18.6827 5.92835 19.7892 6.85105 20.642C7.77375 21.4719 8.95019 21.8868 10.3804 21.8868ZM25.6115 8.60949H31.0093V27.2115H25.6115V8.60949ZM28.3104 6.01627C27.3185 6.01627 26.5112 5.72813 25.8884 5.15186C25.2655 4.57559 24.9541 3.86102 24.9541 3.00813C24.9541 2.15525 25.2655 1.44068 25.8884 0.864407C26.5112 0.288136 27.3185 0 28.3104 0C29.3023 0 30.1097 0.276609 30.7325 0.82983C31.3554 1.38305 31.6668 2.07458 31.6668 2.90441C31.6668 3.80339 31.3554 4.55254 30.7325 5.15186C30.1097 5.72813 29.3023 6.01627 28.3104 6.01627ZM55.2227 8.60949V24.0997C55.2227 27.5112 54.3346 30.0468 52.5584 31.7064C50.7822 33.3661 48.1871 34.1959 44.7731 34.1959C42.9739 34.1959 41.2669 33.9769 39.6521 33.539C38.0374 33.101 36.6995 32.4671 35.6384 31.6373L37.7837 27.7647C38.568 28.4102 39.5599 28.9173 40.7594 29.2861C41.9589 29.678 43.1584 29.8739 44.3579 29.8739C46.2264 29.8739 47.5989 29.4475 48.4755 28.5946C49.3751 27.7647 49.8249 26.4969 49.8249 24.7912V23.9959C48.4178 25.5403 46.4571 26.3125 43.9427 26.3125C42.2357 26.3125 40.6671 25.9437 39.2369 25.2061C37.8298 24.4454 36.711 23.3851 35.8806 22.0251C35.0502 20.6651 34.635 19.0976 34.635 17.3227C34.635 15.5478 35.0502 13.9803 35.8806 12.6203C36.711 11.2603 37.8298 10.2115 39.2369 9.4739C40.6671 8.71322 42.2357 8.33288 43.9427 8.33288C46.6416 8.33288 48.6946 9.22034 50.1017 10.9953V8.60949H55.2227ZM45.0153 21.8868C46.4455 21.8868 47.6104 21.4719 48.5101 20.642C49.4328 19.7892 49.8941 18.6827 49.8941 17.3227C49.8941 15.9627 49.4328 14.8678 48.5101 14.038C47.6104 13.1851 46.4455 12.7586 45.0153 12.7586C43.5852 12.7586 42.4087 13.1851 41.486 14.038C40.5633 14.8678 40.102 15.9627 40.102 17.3227C40.102 18.6827 40.5633 19.7892 41.486 20.642C42.4087 21.4719 43.5852 21.8868 45.0153 21.8868ZM71.25 8.33288C72.9801 8.33288 74.5486 8.73627 75.9558 9.54305C77.3859 10.3268 78.5047 11.4447 79.3121 12.8969C80.1194 14.3261 80.5231 15.9973 80.5231 17.9105C80.5231 19.8237 80.1194 21.5064 79.3121 22.9586C78.5047 24.3878 77.3859 25.5058 75.9558 26.3125C74.5486 27.0963 72.9801 27.4881 71.25 27.4881C68.6895 27.4881 66.7403 26.6814 65.4024 25.0678V27.2115H60.2468V1.55593H65.6446V10.5803C67.0056 9.08203 68.874 8.33288 71.25 8.33288ZM70.3158 23.0624C71.6998 23.0624 72.8301 22.6014 73.7067 21.6793C74.6063 20.7342 75.0561 19.478 75.0561 17.9105C75.0561 16.343 74.6063 15.0983 73.7067 14.1763C72.8301 13.2312 71.6998 12.7586 70.3158 12.7586C68.9317 12.7586 67.7899 13.2312 66.8902 14.1763C66.0137 15.0983 65.5754 16.343 65.5754 17.9105C65.5754 19.478 66.0137 20.7342 66.8902 21.6793C67.7899 22.6014 68.9317 23.0624 70.3158 23.0624ZM91.3409 8.33288C94.2243 8.33288 96.4388 9.02441 97.9844 10.4075C99.5299 11.7675 100.303 13.8305 100.303 16.5966V27.2115H95.2508V24.8949C94.2359 26.6237 92.3443 27.4881 89.5762 27.4881C88.1461 27.4881 86.9004 27.2461 85.8393 26.762C84.8013 26.278 84.0054 25.6095 83.4518 24.7566C82.8982 23.9037 82.6214 22.9356 82.6214 21.8522C82.6214 20.1234 83.2673 18.7634 84.5591 17.7722C85.8739 16.781 87.8923 16.2854 90.6143 16.2854H94.9048C94.9048 15.1098 94.5473 14.2108 93.8322 13.5885C93.1171 12.943 92.0445 12.6203 90.6143 12.6203C89.6224 12.6203 88.642 12.7817 87.6732 13.1044C86.7274 13.4041 85.9201 13.819 85.2511 14.3492L83.3134 10.5803C84.3284 9.86576 85.5394 9.31254 86.9466 8.92068C88.3767 8.52881 89.8415 8.33288 91.3409 8.33288ZM90.9257 23.8576C91.8484 23.8576 92.6673 23.6502 93.3824 23.2353C94.0975 22.7973 94.605 22.1634 94.9048 21.3336V19.4319H91.2025C88.988 19.4319 87.8808 20.158 87.8808 21.6102C87.8808 22.3017 88.1461 22.8549 88.6766 23.2698C89.2302 23.6617 89.9799 23.8576 90.9257 23.8576ZM124.594 8.60949V24.0997C124.594 27.5112 123.706 30.0468 121.93 31.7064C120.154 33.3661 117.559 34.1959 114.145 34.1959C112.345 34.1959 110.638 33.9769 109.024 33.539C107.409 33.101 106.071 32.4671 105.01 31.6373L107.155 27.7647C107.939 28.4102 108.931 28.9173 110.131 29.2861C111.33 29.678 112.53 29.8739 113.729 29.8739C115.598 29.8739 116.97 29.4475 117.847 28.5946C118.747 27.7647 119.196 26.4969 119.196 24.7912V23.9959C117.789 25.5403 115.828 26.3125 113.314 26.3125C111.607 26.3125 110.039 25.9437 108.608 25.2061C107.201 24.4454 106.082 23.3851 105.252 22.0251C104.422 20.6651 104.006 19.0976 104.006 17.3227C104.006 15.5478 104.422 13.9803 105.252 12.6203C106.082 11.2603 107.201 10.2115 108.608 9.4739C110.039 8.71322 111.607 8.33288 113.314 8.33288C116.013 8.33288 118.066 9.22034 119.473 10.9953V8.60949H124.594ZM114.387 21.8868C115.817 21.8868 116.982 21.4719 117.882 20.642C118.804 19.7892 119.266 18.6827 119.266 17.3227C119.266 15.9627 118.804 14.8678 117.882 14.038C116.982 13.1851 115.817 12.7586 114.387 12.7586C112.957 12.7586 111.78 13.1851 110.857 14.038C109.935 14.8678 109.473 15.9627 109.473 17.3227C109.473 18.6827 109.935 19.7892 110.857 20.642C111.78 21.4719 112.957 21.8868 114.387 21.8868Z" fill="white"/>
</svg>
