<svg width="68" height="68" viewBox="0 0 68 68" fill="none" xmlns="http://www.w3.org/2000/svg">
<circle cx="34" cy="34" r="34" fill="#F7F7F7"/>
<circle cx="34" cy="34.0001" r="30.2222" fill="white"/>
<path d="M53 24.3343C51.6241 24.9379 50.1579 25.338 48.6294 25.5322C50.2019 24.5933 51.4021 23.118 51.9663 21.3396C50.5002 22.2138 48.8814 22.8312 47.1563 23.1758C45.7642 21.6935 43.7801 20.7754 41.6156 20.7754C37.4161 20.7754 34.0352 24.184 34.0352 28.3627C34.0352 28.964 34.0861 29.5421 34.2109 30.0925C27.9048 29.7849 22.3247 26.7625 18.5761 22.1583C17.9217 23.2937 17.5378 24.5933 17.5378 25.9924C17.5378 28.6194 18.8906 30.9481 20.9071 32.2963C19.6884 32.2731 18.4929 31.9193 17.48 31.362C17.48 31.3851 17.48 31.4152 17.48 31.4453C17.48 35.1314 20.1093 38.1931 23.5572 38.8985C22.9398 39.0673 22.2669 39.1482 21.5685 39.1482C21.0829 39.1482 20.5926 39.1205 20.1324 39.0187C21.1152 42.0226 23.9041 44.2311 27.2203 44.3028C24.6395 46.3216 21.3627 47.538 17.8153 47.538C17.1933 47.538 16.5966 47.5102 16 47.4339C19.3601 49.6007 23.3422 50.8379 27.6365 50.8379C41.5947 50.8379 49.226 39.2754 49.226 29.253C49.226 28.9177 49.2144 28.594 49.1982 28.2725C50.7037 27.2041 51.9686 25.8698 53 24.3343Z" fill="#AC2727"/>
</svg>
